<svg width="12" height="13" viewBox="0 0 12 13" fill="none" xmlns="http://www.w3.org/2000/svg">
<path id="Vector" d="M6.51563 12.2773V12.2891C6.50781 12.2969 6.5 12.3027 6.49219 12.3066C6.48438 12.3105 6.47656 12.3164 6.46875 12.3242L6.52734 12.2773C6.45703 12.3477 6.37695 12.4023 6.28711 12.4414C6.19727 12.4805 6.10156 12.5 6 12.5C5.98438 12.5 5.96875 12.498 5.95313 12.4941C5.9375 12.4902 5.92188 12.4883 5.90625 12.4883L6 12.5C5.89844 12.5 5.80273 12.4785 5.71289 12.4355C5.62305 12.3926 5.54297 12.3398 5.47266 12.2773L0.210938 7.02734C0.148438 6.95703 0.0976563 6.87695 0.0585938 6.78711C0.0195313 6.69727 0 6.60156 0 6.5C0 6.29688 0.0722656 6.12109 0.216797 5.97266C0.361328 5.82422 0.535156 5.75 0.738281 5.75C0.839844 5.75 0.9375 5.76953 1.03125 5.80859C1.125 5.84766 1.20313 5.90234 1.26563 5.97266L5.25 9.96875L5.25 1.25C5.25 1.03906 5.32227 0.861328 5.4668 0.716797C5.61133 0.572266 5.78906 0.5 6 0.5C6.20312 0.5 6.37695 0.572266 6.52148 0.716797C6.66602 0.861328 6.73828 1.03906 6.73828 1.25L6.73828 9.96875L10.7227 5.97266C10.793 5.90234 10.873 5.84961 10.9629 5.81445C11.0527 5.7793 11.1484 5.76172 11.25 5.76172C11.3359 5.76172 11.418 5.77539 11.4961 5.80273C11.5742 5.83008 11.6445 5.87109 11.707 5.92578L11.7773 5.97266C11.8477 6.04297 11.9023 6.12305 11.9414 6.21289C11.9805 6.30273 12 6.39844 12 6.5C12 6.60156 11.9805 6.69727 11.9414 6.78711C11.9023 6.87695 11.8477 6.95703 11.7773 7.02734L6.52734 12.2773H6.51563Z" fill="#018ABD"/>
</svg>
